<svg xmlns="http://www.w3.org/2000/svg" viewBox="-20 -20 450 450" style="background-color:#1e1e1e;">
  <rect x="0" y="0" width="400" height="400" fill="none" stroke="#555" stroke-width="2"/>
  <line x1="0" y1="0" x2="0" y2="400" stroke="#333" stroke-width="0.5"/>
  <line x1="10" y1="0" x2="10" y2="400" stroke="#333" stroke-width="0.5"/>
  <line x1="20" y1="0" x2="20" y2="400" stroke="#333" stroke-width="0.5"/>
  <line x1="30" y1="0" x2="30" y2="400" stroke="#333" stroke-width="0.5"/>
  <line x1="40" y1="0" x2="40" y2="400" stroke="#333" stroke-width="0.5"/>
  <line x1="50" y1="0" x2="50" y2="400" stroke="#333" stroke-width="0.5"/>
  <line x1="60" y1="0" x2="60" y2="400" stroke="#333" stroke-width="0.5"/>
  <line x1="70" y1="0" x2="70" y2="400" stroke="#333" stroke-width="0.5"/>
  <line x1="80" y1="0" x2="80" y2="400" stroke="#333" stroke-width="0.5"/>
  <line x1="90" y1="0" x2="90" y2="400" stroke="#333" stroke-width="0.5"/>
  <line x1="100" y1="0" x2="100" y2="400" stroke="#333" stroke-width="0.5"/>
  <line x1="110" y1="0" x2="110" y2="400" stroke="#333" stroke-width="0.5"/>
  <line x1="120" y1="0" x2="120" y2="400" stroke="#333" stroke-width="0.5"/>
  <line x1="130" y1="0" x2="130" y2="400" stroke="#333" stroke-width="0.5"/>
  <line x1="140" y1="0" x2="140" y2="400" stroke="#333" stroke-width="0.5"/>
  <line x1="150" y1="0" x2="150" y2="400" stroke="#333" stroke-width="0.5"/>
  <line x1="160" y1="0" x2="160" y2="400" stroke="#333" stroke-width="0.5"/>
  <line x1="170" y1="0" x2="170" y2="400" stroke="#333" stroke-width="0.5"/>
  <line x1="180" y1="0" x2="180" y2="400" stroke="#333" stroke-width="0.5"/>
  <line x1="190" y1="0" x2="190" y2="400" stroke="#333" stroke-width="0.5"/>
  <line x1="200" y1="0" x2="200" y2="400" stroke="#333" stroke-width="0.5"/>
  <line x1="210" y1="0" x2="210" y2="400" stroke="#333" stroke-width="0.5"/>
  <line x1="220" y1="0" x2="220" y2="400" stroke="#333" stroke-width="0.5"/>
  <line x1="230" y1="0" x2="230" y2="400" stroke="#333" stroke-width="0.5"/>
  <line x1="240" y1="0" x2="240" y2="400" stroke="#333" stroke-width="0.5"/>
  <line x1="250" y1="0" x2="250" y2="400" stroke="#333" stroke-width="0.5"/>
  <line x1="260" y1="0" x2="260" y2="400" stroke="#333" stroke-width="0.5"/>
  <line x1="270" y1="0" x2="270" y2="400" stroke="#333" stroke-width="0.5"/>
  <line x1="280" y1="0" x2="280" y2="400" stroke="#333" stroke-width="0.5"/>
  <line x1="290" y1="0" x2="290" y2="400" stroke="#333" stroke-width="0.5"/>
  <line x1="300" y1="0" x2="300" y2="400" stroke="#333" stroke-width="0.5"/>
  <line x1="310" y1="0" x2="310" y2="400" stroke="#333" stroke-width="0.5"/>
  <line x1="320" y1="0" x2="320" y2="400" stroke="#333" stroke-width="0.5"/>
  <line x1="330" y1="0" x2="330" y2="400" stroke="#333" stroke-width="0.5"/>
  <line x1="340" y1="0" x2="340" y2="400" stroke="#333" stroke-width="0.5"/>
  <line x1="350" y1="0" x2="350" y2="400" stroke="#333" stroke-width="0.5"/>
  <line x1="360" y1="0" x2="360" y2="400" stroke="#333" stroke-width="0.5"/>
  <line x1="370" y1="0" x2="370" y2="400" stroke="#333" stroke-width="0.5"/>
  <line x1="380" y1="0" x2="380" y2="400" stroke="#333" stroke-width="0.5"/>
  <line x1="390" y1="0" x2="390" y2="400" stroke="#333" stroke-width="0.5"/>
  <line x1="400" y1="0" x2="400" y2="400" stroke="#333" stroke-width="0.5"/>
  <line x1="0" y1="0" x2="400" y2="0" stroke="#333" stroke-width="0.5"/>
  <line x1="0" y1="10" x2="400" y2="10" stroke="#333" stroke-width="0.5"/>
  <line x1="0" y1="20" x2="400" y2="20" stroke="#333" stroke-width="0.5"/>
  <line x1="0" y1="30" x2="400" y2="30" stroke="#333" stroke-width="0.5"/>
  <line x1="0" y1="40" x2="400" y2="40" stroke="#333" stroke-width="0.5"/>
  <line x1="0" y1="50" x2="400" y2="50" stroke="#333" stroke-width="0.5"/>
  <line x1="0" y1="60" x2="400" y2="60" stroke="#333" stroke-width="0.5"/>
  <line x1="0" y1="70" x2="400" y2="70" stroke="#333" stroke-width="0.5"/>
  <line x1="0" y1="80" x2="400" y2="80" stroke="#333" stroke-width="0.5"/>
  <line x1="0" y1="90" x2="400" y2="90" stroke="#333" stroke-width="0.5"/>
  <line x1="0" y1="100" x2="400" y2="100" stroke="#333" stroke-width="0.5"/>
  <line x1="0" y1="110" x2="400" y2="110" stroke="#333" stroke-width="0.5"/>
  <line x1="0" y1="120" x2="400" y2="120" stroke="#333" stroke-width="0.5"/>
  <line x1="0" y1="130" x2="400" y2="130" stroke="#333" stroke-width="0.5"/>
  <line x1="0" y1="140" x2="400" y2="140" stroke="#333" stroke-width="0.5"/>
  <line x1="0" y1="150" x2="400" y2="150" stroke="#333" stroke-width="0.5"/>
  <line x1="0" y1="160" x2="400" y2="160" stroke="#333" stroke-width="0.5"/>
  <line x1="0" y1="170" x2="400" y2="170" stroke="#333" stroke-width="0.5"/>
  <line x1="0" y1="180" x2="400" y2="180" stroke="#333" stroke-width="0.5"/>
  <line x1="0" y1="190" x2="400" y2="190" stroke="#333" stroke-width="0.5"/>
  <line x1="0" y1="200" x2="400" y2="200" stroke="#333" stroke-width="0.5"/>
  <line x1="0" y1="210" x2="400" y2="210" stroke="#333" stroke-width="0.5"/>
  <line x1="0" y1="220" x2="400" y2="220" stroke="#333" stroke-width="0.5"/>
  <line x1="0" y1="230" x2="400" y2="230" stroke="#333" stroke-width="0.5"/>
  <line x1="0" y1="240" x2="400" y2="240" stroke="#333" stroke-width="0.5"/>
  <line x1="0" y1="250" x2="400" y2="250" stroke="#333" stroke-width="0.5"/>
  <line x1="0" y1="260" x2="400" y2="260" stroke="#333" stroke-width="0.5"/>
  <line x1="0" y1="270" x2="400" y2="270" stroke="#333" stroke-width="0.5"/>
  <line x1="0" y1="280" x2="400" y2="280" stroke="#333" stroke-width="0.5"/>
  <line x1="0" y1="290" x2="400" y2="290" stroke="#333" stroke-width="0.5"/>
  <line x1="0" y1="300" x2="400" y2="300" stroke="#333" stroke-width="0.5"/>
  <line x1="0" y1="310" x2="400" y2="310" stroke="#333" stroke-width="0.5"/>
  <line x1="0" y1="320" x2="400" y2="320" stroke="#333" stroke-width="0.5"/>
  <line x1="0" y1="330" x2="400" y2="330" stroke="#333" stroke-width="0.5"/>
  <line x1="0" y1="340" x2="400" y2="340" stroke="#333" stroke-width="0.5"/>
  <line x1="0" y1="350" x2="400" y2="350" stroke="#333" stroke-width="0.5"/>
  <line x1="0" y1="360" x2="400" y2="360" stroke="#333" stroke-width="0.5"/>
  <line x1="0" y1="370" x2="400" y2="370" stroke="#333" stroke-width="0.5"/>
  <line x1="0" y1="380" x2="400" y2="380" stroke="#333" stroke-width="0.5"/>
  <line x1="0" y1="390" x2="400" y2="390" stroke="#333" stroke-width="0.5"/>
  <line x1="0" y1="400" x2="400" y2="400" stroke="#333" stroke-width="0.5"/>
  
  <rect x="114" y="390" width="2" height="2" fill="#4CAF50" stroke="black" stroke-width="0.5" />
  <text x="114" y="388" font-family="Arial" font-size="3" fill="#ccc">g2</text>
  <rect x="115" y="330" width="2" height="2" fill="#4CAF50" stroke="black" stroke-width="0.5" />
  <text x="115" y="328" font-family="Arial" font-size="3" fill="#ccc">g4</text>
  <rect x="121" y="10" width="2" height="2" fill="#4CAF50" stroke="black" stroke-width="0.5" />
  <text x="121" y="8" font-family="Arial" font-size="3" fill="#ccc">g1</text>
  <rect x="153" y="140" width="2" height="2" fill="#4CAF50" stroke="black" stroke-width="0.5" />
  <text x="153" y="138" font-family="Arial" font-size="3" fill="#ccc">g3</text>
  <rect x="387" y="170" width="2" height="2" fill="#4CAF50" stroke="black" stroke-width="0.5" />
  <text x="387" y="168" font-family="Arial" font-size="3" fill="#ccc">g5</text>
</svg>
